<?xml version="1.0" encoding="utf-8"?><svg width="41" height="44" fill="none" xmlns="http://www.w3.org/2000/svg" stroke="currentColor" viewBox="0 0 41 44"><path d="M15.712 38.141l.386-1.45a1.499 1.499 0 0 0-.87.03l.484 1.42zm-9.866-6.536l1.486.209a1.5 1.5 0 0 0-.3-1.128l-1.186.92zM4.387 42l-1.485-.209A1.5 1.5 0 0 0 4.87 43.42L4.387 42zm8.952-27.762a1.5 1.5 0 1 0 0 3v-3zm7.161 3a1.5 1.5 0 0 0 0-3v3zm-7.161 4.167a1.5 1.5 0 0 0 0 3v-3zm14.322 3a1.5 1.5 0 0 0 0-3v3zM15.326 39.591a20.107 20.107 0 0 0 13.726-1.233l-1.276-2.715a17.107 17.107 0 0 1-11.678 1.049l-.772 2.899zm13.726-1.233a19.94 19.94 0 0 0 9.668-9.774l-2.73-1.243a16.94 16.94 0 0 1-8.214 8.302l1.276 2.715zm9.668-9.774a19.778 19.778 0 0 0 1.006-13.677l-2.882.83a16.777 16.777 0 0 1-.854 11.604l2.73 1.243zm1.006-13.677a19.892 19.892 0 0 0-8.135-11.07l-1.657 2.501a16.891 16.891 0 0 1 6.91 9.4l2.882-.831zm-8.135-11.07A20.091 20.091 0 0 0 18.19.633l.344 2.98a17.091 17.091 0 0 1 11.4 2.725l1.657-2.5zM18.19.633A20.042 20.042 0 0 0 5.885 6.81L8.07 8.865a17.042 17.042 0 0 1 10.463-5.252L18.19.633zM5.885 6.81A19.826 19.826 0 0 0 .522 19.444l2.997.142A16.826 16.826 0 0 1 8.071 8.865L5.885 6.81zM.522 19.444a19.805 19.805 0 0 0 4.139 13.08l2.37-1.838a16.805 16.805 0 0 1-3.512-11.1l-2.997-.142zm3.839 11.953L2.9 41.792l2.972.416 1.459-10.394-2.971-.417zm.51 12.023l11.325-3.859-.968-2.84-11.325 3.86.968 2.839zm8.468-26.182H20.5v-3h-7.161v3zm0 7.167H27.66v-3H13.34v3z" fill="#fff"/></svg>