<svg width="24" height="26" viewBox="0 0 24 26" fill="none" xmlns="http://www.w3.org/2000/svg">
<path d="M3.6321 22.9682H18.5395L17.8263 20.5728L19.53 22.0887L21.0918 23.5362L23.9346 26V2.68302C23.8877 1.95554 23.5758 1.27373 23.0621 0.77562C22.5484 0.277514 21.8712 0.000341255 21.1677 0.00022733H3.6354C2.93568 -0.00906679 2.26045 0.266947 1.75524 0.76878C1.25003 1.27061 0.955298 1.95808 0.93457 2.68302V20.2854C0.937914 20.6463 1.01078 21.0029 1.14889 21.3342C1.28701 21.6655 1.48759 21.9649 1.73886 22.2148C1.99013 22.4647 2.28704 22.6601 2.61215 22.7895C2.93726 22.9188 3.28403 22.9796 3.6321 22.9682ZM14.66 6.15969H14.6236H14.66ZM6.67962 7.52846C7.74472 6.68674 9.03569 6.20847 10.3743 6.15969L10.5163 6.30683C8.17201 6.88514 7.10885 7.97331 7.10885 7.97331C7.10885 7.97331 7.3928 7.82959 7.88806 7.60716C9.45845 6.95553 11.1446 6.65729 12.8346 6.73222C14.5246 6.80714 16.18 7.25351 17.691 8.04175C17.691 8.04175 16.6245 7.01517 14.4255 6.37527L14.6203 6.1768C15.9377 6.2364 17.2056 6.71424 18.2523 7.54557C19.469 9.88643 20.13 12.4941 20.1805 15.1525C20.121 15.0567 18.9885 16.9559 16.0665 17.0209C16.0665 17.0209 15.5745 16.4391 15.2212 15.9361C16.9283 15.4297 17.5655 14.4134 17.5655 14.4134C17.0843 14.7074 16.5883 14.9747 16.0797 15.2141C15.4638 15.4726 14.8245 15.6663 14.1713 15.7924C11.1535 16.2988 9.46299 15.4502 7.86165 14.7658L7.31686 14.475C7.31686 14.475 7.95079 15.5015 9.58846 15.9977C9.16584 16.5213 8.73991 17.1098 8.73991 17.1098C5.82777 17.038 4.77781 15.1525 4.77781 15.1525C4.81879 12.4907 5.4707 9.87731 6.67962 7.52846Z" fill="white"/>
<path d="M14.8478 13.8383C15.2069 13.8202 15.5455 13.6597 15.7935 13.3899C16.0415 13.1201 16.1798 12.7617 16.1798 12.3891C16.1798 12.0165 16.0415 11.6582 15.7935 11.3884C15.5455 11.1186 15.2069 10.958 14.8478 10.9399C14.4774 10.9399 14.1222 11.0924 13.8602 11.3639C13.5983 11.6354 13.4512 12.0035 13.4512 12.3874C13.4512 12.7713 13.5983 13.1395 13.8602 13.4109C14.1222 13.6824 14.4774 13.8349 14.8478 13.8349V13.8383Z" fill="white"/>
<path d="M10.0216 13.8383C10.3807 13.8202 10.7194 13.6597 10.9673 13.3899C11.2153 13.1201 11.3536 12.7617 11.3536 12.3891C11.3536 12.0165 11.2153 11.6582 10.9673 11.3884C10.7194 11.1186 10.3807 10.958 10.0216 10.9399C9.65123 10.9399 9.29599 11.0924 9.03407 11.3639C8.77215 11.6354 8.625 12.0035 8.625 12.3874C8.625 12.7713 8.77215 13.1395 9.03407 13.4109C9.29599 13.6824 9.65123 13.8349 10.0216 13.8349V13.8383Z" fill="white"/>
</svg>
