<svg width="28" height="22" viewBox="0 0 28 22" fill="none" xmlns="http://www.w3.org/2000/svg">
<path d="M27.2822 0.634892L25.1271 2.6582C25.0351 2.7252 24.9636 2.81571 24.9203 2.91989C24.877 3.02407 24.8637 3.13792 24.8817 3.24904V18.1357C24.8639 18.2465 24.8773 18.3599 24.9206 18.4637C24.9639 18.5674 25.0353 18.6575 25.1271 18.7241L27.2307 20.7498V21.1912H16.6442V20.7474L18.8263 18.6735C19.0374 18.4661 19.0374 18.401 19.0374 18.0826V6.05611L12.9722 21.1526H12.15L5.09559 6.05611V16.1847C5.06561 16.3945 5.08521 16.6083 5.1529 16.8095C5.22058 17.0106 5.33451 17.1938 5.48586 17.3447L8.32086 20.7209V21.1646H0.282227V20.7281L3.11723 17.3519C3.26833 17.1982 3.37956 17.0111 3.44151 16.8062C3.50346 16.6014 3.51431 16.3849 3.47313 16.1751V4.47653C3.48845 4.31612 3.46561 4.1544 3.40639 4.00415C3.34718 3.8539 3.25323 3.71923 3.13195 3.61078L0.623408 0.634892V0.191162H8.4485L14.499 13.1992L19.818 0.191162H27.2822V0.634892Z" fill="white"/>
</svg>
