<svg width="26" height="22" viewBox="0 0 26 22" fill="none" xmlns="http://www.w3.org/2000/svg">
<path fill-rule="evenodd" clip-rule="evenodd" d="M23.3382 5.66804C23.348 5.89575 23.3545 6.12347 23.3545 6.35441C23.3545 13.3587 17.9887 21.437 8.177 21.437C5.16425 21.437 2.36112 20.5601 0 19.0565C0.417625 19.1049 0.84175 19.1292 1.27238 19.1292C3.77163 19.1292 6.071 18.2829 7.8975 16.8601C5.56237 16.8181 3.59288 15.2854 2.91363 13.1795C3.24025 13.2408 3.57337 13.2731 3.91788 13.2731C4.40375 13.2731 4.875 13.2085 5.3235 13.0874C2.88275 12.6013 1.04487 10.4582 1.04487 7.89029V7.82246C1.76312 8.21976 2.587 8.45878 3.46125 8.48623C2.02963 7.53499 1.08712 5.9119 1.08712 4.07402C1.08712 3.10178 1.35037 2.19091 1.81025 1.40763C4.44112 4.61505 8.372 6.72587 12.805 6.94713C12.714 6.55952 12.6669 6.15415 12.6669 5.7391C12.6669 2.81108 15.0556 0.437012 18.0001 0.437012C19.5357 0.437012 20.9219 1.0814 21.8936 2.11178C23.1091 1.87437 24.2515 1.43347 25.2817 0.826229C24.8836 2.06333 24.037 3.10178 22.9369 3.75909C24.0159 3.62989 25.0429 3.34565 26 2.92413C25.285 3.98681 24.3799 4.92028 23.3382 5.66804Z" fill="white"/>
</svg>
