<?xml version="1.0" encoding="utf-8"?><svg width="21" height="21" fill="none" xmlns="http://www.w3.org/2000/svg" stroke="currentColor" viewBox="0 0 21 21"><path d="M10.5 0C4.697 0 0 4.696 0 10.5c0 1.71.42 3.4 1.214 4.904l-.403 3.884a.82.82 0 0 0 .9.901l3.885-.403A10.512 10.512 0 0 0 10.5 21C16.303 21 21 16.304 21 10.5 21 4.697 16.304 0 10.5 0zm0 19.36a8.861 8.861 0 0 1-4.333-1.132.822.822 0 0 0-.487-.1l-3.133.325.325-3.133a.821.821 0 0 0-.1-.487A8.862 8.862 0 0 1 1.64 10.5 8.854 8.854 0 0 1 10.5 1.64a8.855 8.855 0 0 1 8.86 8.86 8.855 8.855 0 0 1-8.86 8.86zm2.42-8.874a2.436 2.436 0 0 0-2.421 2.68A5.67 5.67 0 0 1 7.835 10.5a2.436 2.436 0 0 0 2.679-2.42A2.436 2.436 0 0 0 8.08 5.646 2.436 2.436 0 0 0 5.647 8.08c0 4.01 3.262 7.274 7.273 7.274a2.436 2.436 0 0 0 2.434-2.434 2.436 2.436 0 0 0-2.434-2.434zM8.08 7.287a.794.794 0 1 1-.002 1.588.794.794 0 0 1 .002-1.588zm4.047 5.633a.794.794 0 0 1 1.586 0 .794.794 0 0 1-1.586 0z" fill="#fff"/></svg>