<?xml version="1.0" encoding="utf-8"?><svg xmlns="http://www.w3.org/2000/svg" xmlns:xlink="http://www.w3.org/1999/xlink"><symbol fill="none" stroke="currentColor" viewBox="0 0 15 15" id="calendar" xmlns="http://www.w3.org/2000/svg"><path d="M.75 5.304V11.5a2 2 0 0 0 2 2h8.75a2 2 0 0 0 2-2V5.304m-12.75 0V3.66a2 2 0 0 1 2-2H5.304M.75 5.304H13.5m0 0V3.66a2 2 0 0 0-2-2H8.946m-3.642 0h3.642m-3.642 0V.75m0 .91v.911m3.642-.91V.75m0 .91v.911" stroke-width="2" stroke-linecap="round" stroke-linejoin="round"/></symbol><symbol fill="none" stroke="currentColor" viewBox="0 0 10 8" id="check" xmlns="http://www.w3.org/2000/svg"><path d="M1 3.79L3.854 7 9 1" stroke-linecap="round"/></symbol><symbol fill="none" stroke="currentColor" viewBox="0 0 9 16" id="chev-right" xmlns="http://www.w3.org/2000/svg"><path d="M1 1.5L8 8l-7 6.5" stroke-width="2" stroke-linecap="round" stroke-linejoin="round"/></symbol><symbol fill="none" stroke="currentColor" viewBox="0 0 41 44" id="dialog" xmlns="http://www.w3.org/2000/svg"><path d="M15.712 38.141l.386-1.45a1.499 1.499 0 0 0-.87.03l.484 1.42zm-9.866-6.536l1.486.209a1.5 1.5 0 0 0-.3-1.128l-1.186.92zM4.387 42l-1.485-.209A1.5 1.5 0 0 0 4.87 43.42L4.387 42zm8.952-27.762a1.5 1.5 0 1 0 0 3v-3zm7.161 3a1.5 1.5 0 0 0 0-3v3zm-7.161 4.167a1.5 1.5 0 0 0 0 3v-3zm14.322 3a1.5 1.5 0 0 0 0-3v3zM15.326 39.591a20.107 20.107 0 0 0 13.726-1.233l-1.276-2.715a17.107 17.107 0 0 1-11.678 1.049l-.772 2.899zm13.726-1.233a19.94 19.94 0 0 0 9.668-9.774l-2.73-1.243a16.94 16.94 0 0 1-8.214 8.302l1.276 2.715zm9.668-9.774a19.778 19.778 0 0 0 1.006-13.677l-2.882.83a16.777 16.777 0 0 1-.854 11.604l2.73 1.243zm1.006-13.677a19.892 19.892 0 0 0-8.135-11.07l-1.657 2.501a16.891 16.891 0 0 1 6.91 9.4l2.882-.831zm-8.135-11.07A20.091 20.091 0 0 0 18.19.633l.344 2.98a17.091 17.091 0 0 1 11.4 2.725l1.657-2.5zM18.19.633A20.042 20.042 0 0 0 5.885 6.81L8.07 8.865a17.042 17.042 0 0 1 10.463-5.252L18.19.633zM5.885 6.81A19.826 19.826 0 0 0 .522 19.444l2.997.142A16.826 16.826 0 0 1 8.071 8.865L5.885 6.81zM.522 19.444a19.805 19.805 0 0 0 4.139 13.08l2.37-1.838a16.805 16.805 0 0 1-3.512-11.1l-2.997-.142zm3.839 11.953L2.9 41.792l2.972.416 1.459-10.394-2.971-.417zm.51 12.023l11.325-3.859-.968-2.84-11.325 3.86.968 2.839zm8.468-26.182H20.5v-3h-7.161v3zm0 7.167H27.66v-3H13.34v3z" fill="#fff"/></symbol><symbol fill="none" stroke="currentColor" viewBox="0 0 15 20" id="docs" xmlns="http://www.w3.org/2000/svg"><path d="M8 1H2a1 1 0 0 0-1 1v16a1 1 0 0 0 1 1h11a1 1 0 0 0 1-1V6M8 1l6 5M8 1v4a1 1 0 0 0 1 1h5M4 9.5h7m-7 3h7m-7 3h3.5" stroke-width="2" stroke-linecap="round"/></symbol><symbol fill="none" stroke="currentColor" viewBox="0 0 305 371" id="fs-backgroud" xmlns="http://www.w3.org/2000/svg"><path d="M219.812.953C190.05 1.98 154.908 27.028 154.131 65.95c-.45 22.591 5.466 65.887 36.938 68.897l.684 1.711c-5.466 9.098-18.815 34.55-5.474 67.733 12.62 31.387 39.477 39.4 50.938 39.307a108.89 108.89 0 0 0 2.094-.106c-.644.063-1.344.1-2.094.106-6.527.273-22.748-.555-33.491-2.02-12.042-1.642-21.666-8.438-24.972-11.631-11.289-8.552-31.609-37.151-22.578-74.917.912-4.219 4.379-14.025 9.578-19.499l-.342-1.368c-4.789.456-16.762-2.326-26.34-17.104-11.973-18.473-12.658-43.445-11.631-54.392 1.026-10.947 5.131-46.866 51.654-61.575 1.027-.343 13.008-2.191 40.717-.139z" fill="url(#fpaint0_linear)"/><path d="M187.597 101.681c-.22.001-.431-.005-.634-.016l.634.016c6.434-.008 19.606-5.195 21.26-26.699.34-12.934-6.093-29.594-20.985-30.097l-.224-.006c.075.001.15.003.224.006 8.172.231 24.36.749 26.8 1.02 9.921 1.102 25.588 13.957 18.473 39.682-5.473 15.736-14.702 17.422-20.175 17.65l-25.373-1.556z" fill="url(#fpaint1_linear)"/><path d="M218.385 199.053c-.249 0-.489-.006-.719-.019l.719.019c7.308-.01 22.267-5.904 24.146-30.335.386-14.696-6.92-33.624-23.833-34.196l-.255-.007.255.007c9.281.263 25.709-3.884 28.481-3.576 11.267 1.252 31.018 20.593 22.936 49.82-6.216 17.879-16.706 18.786-22.922 19.045l-28.808-.758z" fill="url(#fpaint2_linear)"/><path fill-rule="evenodd" clip-rule="evenodd" d="M191.482 136.643l-.684-1.368c-32.02-3.558-38.428-47.55-37.63-69.101C155.563 27.86 191.14-4.98 227.743 1.86c6.173 1.154 25.999 5.816 38.656 39.34 10.126 26.82 1.026 49.489-4.789 57.47l.684 1.711c17.788-1.368 44.95 25.657 41.392 70.812-3.557 45.155-36.147 65.566-51.997 70.127-12.999 4.676-43.582 5.474-61.918-28.735-18.335-34.208-6.499-64.882 1.711-75.943zm43.104-62.602c0 15.394-8.553 28.394-21.552 28.394-11.902 0-21.551-12.712-21.551-28.394 0-15.68 10.604-28.05 21.551-28.05 11.631 0 21.552 12.657 21.552 28.05zm6.499 124.178c14.856 0 24.288-14.959 24.288-32.498 0-17.54-11.777-31.13-24.288-31.13-12.51 0-24.288 13.605-24.288 31.472s10.685 32.156 24.288 32.156z" fill="url(#fpaint3_linear)"/><path d="M62.707 189.71c22.167.765 48.342 19.421 48.92 48.41.336 16.827-4.071 49.074-27.512 51.316l-.51 1.274c4.072 6.776 14.014 25.734 4.078 50.448-9.4 23.378-29.403 29.346-37.94 29.277a73.433 73.433 0 0 1-1.559-.079c.48.047 1.001.075 1.56.079 4.861.203 16.942-.413 24.944-1.505 8.969-1.223 16.137-6.284 18.6-8.662 8.408-6.37 23.543-27.671 16.816-55.799-.679-3.143-3.261-10.447-7.134-14.524l.255-1.019c3.567.34 12.484-1.732 19.619-12.739 8.917-13.759 9.427-32.358 8.662-40.512-.764-8.153-3.821-34.906-38.473-45.862-.764-.255-9.688-1.632-30.326-.103z" fill="url(#fpaint4_linear)"/><path d="M86.701 264.734c.164 0 .321-.004.472-.013l-.472.013c-4.792-.007-14.602-3.87-15.834-19.886-.254-9.634 4.538-22.043 15.63-22.417l.166-.005a9.26 9.26 0 0 0-.167.005c-6.086.172-18.143.558-19.96.76-7.39.821-19.06 10.395-13.76 29.555 4.077 11.72 10.95 12.976 15.027 13.146l18.898-1.158z" fill="url(#fpaint5_linear)"/><path d="M63.77 337.257c.185 0 .364-.005.536-.014l-.536.014c-5.443-.007-16.585-4.397-17.984-22.594-.288-10.945 5.154-25.044 17.751-25.469l.19-.005-.19.005c-6.913.196-19.148-2.893-21.213-2.664-8.392.933-23.102 15.338-17.084 37.107 4.63 13.316 12.443 13.992 17.073 14.185l21.457-.565z" fill="url(#fpaint6_linear)"/><path fill-rule="evenodd" clip-rule="evenodd" d="M83.808 290.774l.51-1.019c23.848-2.65 28.62-35.416 28.026-51.468-1.784-28.537-28.282-52.996-55.544-47.901-4.598.86-19.364 4.332-28.792 29.301-7.541 19.976-.764 36.86 3.567 42.805l-.51 1.274C17.818 262.747-2.413 282.875.237 316.508c2.65 33.632 26.923 48.834 38.728 52.231 9.682 3.483 32.46 4.077 46.118-21.402 13.656-25.479 4.84-48.325-1.274-56.563zm-32.105-46.627c0 11.466 6.37 21.148 16.052 21.148 8.865 0 16.052-9.468 16.052-21.148 0-11.679-7.899-20.893-16.052-20.893-8.663 0-16.052 9.428-16.052 20.893zm-4.84 92.489c-11.066 0-18.09-11.141-18.09-24.205 0-13.064 8.771-23.186 18.09-23.186 9.317 0 18.09 10.133 18.09 23.441 0 13.307-7.96 23.95-18.09 23.95z" fill="url(#fpaint7_linear)"/><defs><linearGradient id="fpaint0_linear" x1="195.032" y1="254.841" x2="195.032" y2="-4.954" gradientUnits="userSpaceOnUse"><stop stop-color="#2E2E2E"/><stop offset="1" stop-color="#404040"/></linearGradient><linearGradient id="fpaint1_linear" x1="195.032" y1="254.841" x2="195.032" y2="-4.954" gradientUnits="userSpaceOnUse"><stop stop-color="#2E2E2E"/><stop offset="1" stop-color="#404040"/></linearGradient><linearGradient id="fpaint2_linear" x1="195.032" y1="254.841" x2="195.032" y2="-4.954" gradientUnits="userSpaceOnUse"><stop stop-color="#2E2E2E"/><stop offset="1" stop-color="#404040"/></linearGradient><linearGradient id="fpaint3_linear" x1="181.315" y1="3.932" x2="301.97" y2="222.598" gradientUnits="userSpaceOnUse"><stop stop-color="#2E2E2E"/><stop offset="1" stop-color="#404040"/></linearGradient><linearGradient id="fpaint4_linear" x1="81.163" y1="378.809" x2="81.163" y2="185.311" gradientUnits="userSpaceOnUse"><stop stop-color="#2E2E2E"/><stop offset="1" stop-color="#404040"/></linearGradient><linearGradient id="fpaint5_linear" x1="81.163" y1="378.809" x2="81.163" y2="185.311" gradientUnits="userSpaceOnUse"><stop stop-color="#2E2E2E"/><stop offset="1" stop-color="#404040"/></linearGradient><linearGradient id="fpaint6_linear" x1="81.163" y1="378.809" x2="81.163" y2="185.311" gradientUnits="userSpaceOnUse"><stop stop-color="#2E2E2E"/><stop offset="1" stop-color="#404040"/></linearGradient><linearGradient id="fpaint7_linear" x1="91.38" y1="191.929" x2="1.515" y2="354.794" gradientUnits="userSpaceOnUse"><stop stop-color="#2E2E2E"/><stop offset="1" stop-color="#404040"/></linearGradient></defs></symbol><symbol fill="none" stroke="currentColor" viewBox="0 0 15 16" id="link" xmlns="http://www.w3.org/2000/svg"><g clip-path="url(#gclip0)"><path d="M6 3.875H.75V14.75h10.875V9.5M6 9.5l8.25-8.25m0 0H9m5.25 0V6.5" stroke-width="2" stroke-linecap="round" stroke-linejoin="round"/></g><defs><clipPath id="gclip0"><path fill="#fff" transform="translate(0 .5)" d="M0 0h15v15H0z"/></clipPath></defs></symbol><symbol fill="none" stroke="currentColor" viewBox="0 0 120 16" id="logo" xmlns="http://www.w3.org/2000/svg"><path d="M0 14.059l1.211-1.49c.714.483 1.468.86 2.26 1.133a7.74 7.74 0 0 0 2.456.399c1.081 0 1.932-.224 2.552-.671.627-.455.941-1.088.941-1.9 0-.51-.123-.926-.368-1.248a2.622 2.622 0 0 0-.93-.776 5.176 5.176 0 0 0-1.254-.452c-.455-.111-.898-.21-1.33-.293a15.297 15.297 0 0 1-1.84-.462 5.724 5.724 0 0 1-1.567-.787 3.942 3.942 0 0 1-1.093-1.227C.764 5.795.628 5.19.628 4.47c0-.644.118-1.242.356-1.795A3.933 3.933 0 0 1 2.022 1.27c.455-.392.999-.7 1.634-.924C4.29.116 5.006 0 5.808 0c.93 0 1.838.084 2.725.252a7.32 7.32 0 0 1 2.53.976L10.07 2.99a7.751 7.751 0 0 0-2.13-.84A9.656 9.656 0 0 0 5.785 1.9c-.418 0-.815.052-1.19.157a2.862 2.862 0 0 0-.973.483 2.387 2.387 0 0 0-.66.829c-.158.336-.238.72-.238 1.154 0 .434.116.787.346 1.06.231.265.523.486.877.66.36.175.75.315 1.168.42.418.105.81.196 1.178.273.67.147 1.323.315 1.958.504.634.189 1.2.45 1.698.787.497.328.898.755 1.2 1.28.303.524.455 1.2.455 2.024 0 .693-.137 1.316-.411 1.868a3.86 3.86 0 0 1-1.158 1.406c-.504.378-1.106.668-1.806.87-.7.204-1.474.305-2.325.305a10.39 10.39 0 0 1-3.104-.451C1.835 15.22.901 14.73 0 14.059zM13.13 2.214V.294h11.387v1.92h-4.596v13.629h-2.174V2.213H13.13zM26.529 10.932V.294h2.173v10.25c0 .63.101 1.172.303 1.627.202.447.473.814.811 1.101.34.28.736.49 1.19.63a5.172 5.172 0 0 0 2.844 0c.462-.14.866-.35 1.212-.63.346-.287.623-.654.832-1.101.21-.455.314-.997.314-1.627V.294h2.163v10.638c0 .798-.159 1.511-.476 2.14a4.877 4.877 0 0 1-1.287 1.606 5.7 5.7 0 0 1-1.882.986 7.585 7.585 0 0 1-2.282.336c-.8 0-1.564-.112-2.292-.336a5.684 5.684 0 0 1-1.893-.986 4.816 4.816 0 0 1-1.265-1.605c-.31-.637-.465-1.35-.465-2.14zM41.312 15.843V.293h6.014c.757 0 1.47.12 2.141.357.67.231 1.255.567 1.752 1.008.498.433.883.965 1.157 1.594.274.63.411 1.336.411 2.12v5.414a5.01 5.01 0 0 1-.422 2.066 4.647 4.647 0 0 1-1.168 1.606 5.408 5.408 0 0 1-1.752 1.028 6.3 6.3 0 0 1-2.141.357h-5.992zm2.131-1.847h3.374c.433 0 .876-.06 1.33-.178a3.39 3.39 0 0 0 1.233-.62c.36-.286.657-.65.887-1.09.231-.441.346-.99.346-1.648V5.73c0-.644-.108-1.19-.324-1.637a3.113 3.113 0 0 0-.865-1.102 3.271 3.271 0 0 0-1.222-.608 5.16 5.16 0 0 0-1.385-.19h-3.374v11.804zM56.323 15.843V.293h2.142v15.55h-2.142zM61.968 10.765V5.403c0-.783.145-1.5.433-2.15a4.712 4.712 0 0 1 1.211-1.658 5.466 5.466 0 0 1 1.871-1.07 7.367 7.367 0 0 1 2.401-.378c.858 0 1.651.126 2.38.378a5.586 5.586 0 0 1 1.881 1.07 4.652 4.652 0 0 1 1.223 1.657c.295.644.443 1.36.443 2.151v5.362c0 .797-.152 1.52-.454 2.171a4.853 4.853 0 0 1-1.255 1.648 5.943 5.943 0 0 1-1.882 1.049c-.72.245-1.5.367-2.336.367a7.56 7.56 0 0 1-2.4-.367 5.662 5.662 0 0 1-1.872-1.05 4.735 4.735 0 0 1-1.211-1.647c-.288-.65-.433-1.374-.433-2.171zm2.174-.242c0 .63.101 1.172.303 1.627.202.447.472.814.811 1.101.339.28.736.49 1.19.63.461.133.94.199 1.438.199.52 0 1.002-.066 1.45-.2.447-.14.843-.35 1.19-.629a3.01 3.01 0 0 0 .821-1.101c.202-.455.303-.997.303-1.627V5.645c0-.637-.101-1.179-.303-1.627a3.049 3.049 0 0 0-2.012-1.752 4.897 4.897 0 0 0-1.449-.21c-.512 0-.998.07-1.46.21a3.038 3.038 0 0 0-1.179.64 3.113 3.113 0 0 0-.8 1.112c-.202.448-.303.99-.303 1.627v4.878zM82.69 10.65V8.96h6.705v1.69h-6.706zM97.775 11.583c0-.392.062-.776.184-1.154.13-.378.3-.728.509-1.05.216-.328.465-.618.746-.87a3.29 3.29 0 0 1 .919-.588 2.751 2.751 0 0 1-1.492-1.29c-.34-.616-.509-1.305-.509-2.067 0-.72.134-1.357.4-1.91a4.078 4.078 0 0 1 1.082-1.374c.454-.37.959-.647 1.514-.829a5.399 5.399 0 0 1 1.731-.283c.584 0 1.157.09 1.719.273.57.175 1.078.45 1.525.829.454.37.815.832 1.082 1.384.274.553.411 1.196.411 1.93 0 .721-.163 1.386-.487 1.994a2.975 2.975 0 0 1-1.439 1.343 3.46 3.46 0 0 1 1.028.64c.288.252.523.535.703.85.18.315.31.65.389 1.007.087.357.13.7.13 1.029 0 .776-.148 1.45-.443 2.025a4.057 4.057 0 0 1-1.158 1.416 5.005 5.005 0 0 1-1.633.818 6.506 6.506 0 0 1-1.86.273c-.678 0-1.323-.09-1.936-.273a4.869 4.869 0 0 1-1.611-.808 4.05 4.05 0 0 1-1.093-1.364c-.274-.552-.41-1.203-.41-1.951zm2.153-.053c0 .833.256 1.473.767 1.92.52.448 1.248.672 2.185.672.901 0 1.612-.224 2.131-.671.526-.455.789-1.11.789-1.963 0-.384-.079-.737-.238-1.06a2.365 2.365 0 0 0-.627-.818 2.71 2.71 0 0 0-.93-.514 3.501 3.501 0 0 0-1.125-.178c-.404 0-.786.06-1.146.178-.354.12-.664.29-.93.514-.26.224-.473.5-.638.83a2.473 2.473 0 0 0-.238 1.09zm.205-6.966c0 .385.076.738.227 1.06.159.314.364.584.617.807.259.217.551.385.876.504.324.112.667.168 1.027.168a3.13 3.13 0 0 0 1.006-.168 2.65 2.65 0 0 0 .876-.514c.252-.23.454-.504.606-.818.158-.322.238-.675.238-1.06 0-.406-.076-.766-.228-1.08a2.196 2.196 0 0 0-.594-.788 2.483 2.483 0 0 0-.876-.482 3.393 3.393 0 0 0-2.044 0 2.577 2.577 0 0 0-.887.482c-.253.21-.458.473-.617.787a2.52 2.52 0 0 0-.227 1.102zM109.855 11.583c0-.392.062-.776.184-1.154.13-.378.3-.728.509-1.05.216-.328.465-.618.746-.87a3.28 3.28 0 0 1 .919-.588 2.75 2.75 0 0 1-1.492-1.29c-.339-.616-.509-1.305-.509-2.067 0-.72.134-1.357.4-1.91a4.082 4.082 0 0 1 1.082-1.374c.454-.37.959-.647 1.514-.829a5.404 5.404 0 0 1 1.731-.283c.584 0 1.157.09 1.719.273.57.175 1.078.45 1.525.829.454.37.815.832 1.082 1.384.274.553.411 1.196.411 1.93 0 .721-.163 1.386-.487 1.994a2.975 2.975 0 0 1-1.439 1.343 3.46 3.46 0 0 1 1.028.64c.288.252.523.535.703.85.18.315.31.65.389 1.007.087.357.13.7.13 1.029 0 .776-.148 1.45-.443 2.025a4.057 4.057 0 0 1-1.158 1.416 4.995 4.995 0 0 1-1.633.818 6.506 6.506 0 0 1-1.86.273c-.678 0-1.323-.09-1.936-.273a4.862 4.862 0 0 1-1.611-.808 4.054 4.054 0 0 1-1.093-1.364c-.274-.552-.411-1.203-.411-1.951zm2.153-.053c0 .833.256 1.473.768 1.92.519.448 1.247.672 2.184.672.901 0 1.612-.224 2.131-.671.526-.455.789-1.11.789-1.963 0-.384-.079-.737-.238-1.06a2.365 2.365 0 0 0-.627-.818 2.71 2.71 0 0 0-.93-.514 3.501 3.501 0 0 0-1.125-.178c-.404 0-.786.06-1.146.178-.354.12-.664.29-.93.514-.26.224-.473.5-.638.83a2.473 2.473 0 0 0-.238 1.09zm.205-6.966c0 .385.076.738.227 1.06.159.314.364.584.617.807.259.217.551.385.876.504.324.112.667.168 1.027.168a3.13 3.13 0 0 0 1.006-.168 2.65 2.65 0 0 0 .876-.514c.252-.23.454-.504.606-.818.158-.322.238-.675.238-1.06 0-.406-.076-.766-.228-1.08a2.196 2.196 0 0 0-.594-.788 2.483 2.483 0 0 0-.876-.482 3.393 3.393 0 0 0-2.044 0 2.577 2.577 0 0 0-.887.482c-.253.21-.458.473-.617.787a2.52 2.52 0 0 0-.227 1.102z" fill="#fff"/></symbol><symbol fill="none" stroke="currentColor" viewBox="0 0 23 23" id="telegram" xmlns="http://www.w3.org/2000/svg"><path d="M22.645 2.7c-.281-.329-.702-.51-1.185-.51-.263 0-.541.053-.827.158L1.163 9.459C.132 9.836-.008 10.403 0 10.706c.01.304.182.862 1.236 1.183l.019.005L5.293 13l2.184 5.976c.298.814.966 1.32 1.745 1.32.49 0 .973-.197 1.396-.569l2.498-2.2 3.623 2.791.035.027.01.008c.403.298.842.456 1.272.456.839 0 1.507-.594 1.701-1.513l3.19-15.071c.128-.605.021-1.147-.302-1.525zm-16 10.09l7.79-3.808-4.851 4.932a.636.636 0 0 0-.164.287l-.935 3.626-1.84-5.037zm3.06 5.989a1.274 1.274 0 0 1-.098.077l.868-3.364 1.58 1.217-2.35 2.07zm11.921-14.81l-3.19 15.071c-.03.144-.128.48-.38.48-.125 0-.282-.065-.442-.183l-4.105-3.163-.002-.001-2.443-1.882 7.016-7.133a.624.624 0 0 0 .048-.83.693.693 0 0 0-.845-.186l-11.54 5.64-4.093-1.12 19.463-7.11c.165-.06.28-.072.347-.072.041 0 .114.005.142.037.035.042.081.184.024.452z" fill="#fff"/></symbol><symbol fill="none" stroke="currentColor" viewBox="0 0 21 21" id="whatsapp" xmlns="http://www.w3.org/2000/svg"><path d="M10.5 0C4.697 0 0 4.696 0 10.5c0 1.71.42 3.4 1.214 4.904l-.403 3.884a.82.82 0 0 0 .9.901l3.885-.403A10.512 10.512 0 0 0 10.5 21C16.303 21 21 16.304 21 10.5 21 4.697 16.304 0 10.5 0zm0 19.36a8.861 8.861 0 0 1-4.333-1.132.822.822 0 0 0-.487-.1l-3.133.325.325-3.133a.821.821 0 0 0-.1-.487A8.862 8.862 0 0 1 1.64 10.5 8.854 8.854 0 0 1 10.5 1.64a8.855 8.855 0 0 1 8.86 8.86 8.855 8.855 0 0 1-8.86 8.86zm2.42-8.874a2.436 2.436 0 0 0-2.421 2.68A5.67 5.67 0 0 1 7.835 10.5a2.436 2.436 0 0 0 2.679-2.42A2.436 2.436 0 0 0 8.08 5.646 2.436 2.436 0 0 0 5.647 8.08c0 4.01 3.262 7.274 7.273 7.274a2.436 2.436 0 0 0 2.434-2.434 2.436 2.436 0 0 0-2.434-2.434zM8.08 7.287a.794.794 0 1 1-.002 1.588.794.794 0 0 1 .002-1.588zm4.047 5.633a.794.794 0 0 1 1.586 0 .794.794 0 0 1-1.586 0z" fill="#fff"/></symbol></svg>