<svg width="51" height="51" viewBox="0 0 51 51" fill="none" xmlns="http://www.w3.org/2000/svg">
<path d="M20.4769 16.6763V34.1248H16.4406V19.9162H12.9473V16.6763H20.4769Z" fill="#CDA77F"/>
<path d="M37.9252 28.6162C37.9252 32.1819 35.0111 34.4263 31.3187 34.4263C26.5101 34.4263 23.5176 31.4096 23.5176 25.7745C23.5176 19.7411 27.1557 16.3745 32.4168 16.3745C34.263 16.3745 36.0549 16.7968 37.2797 17.5691L35.7834 20.5375C34.812 19.892 33.6898 19.6627 32.5194 19.6627C29.6052 19.6627 27.7349 21.3822 27.6082 24.7247C28.6278 23.705 30.1 23.1801 31.922 23.1801C35.2826 23.1862 37.9252 25.328 37.9252 28.6162ZM34.0156 28.8153C34.0156 27.2225 32.8452 26.1968 31.0472 26.1968C29.2794 26.1968 28.0305 27.2949 28.0305 28.8153C28.0305 30.3116 29.1527 31.4096 31.0955 31.4096C32.815 31.4096 34.0156 30.4141 34.0156 28.8153Z" fill="#CDA77F"/>
<path d="M25.497 51C11.4393 51 0 39.5607 0 25.497C0 11.4332 11.4393 0 25.497 0C27.9103 0 30.2935 0.337868 32.5922 1.00154L31.4217 5.05596C29.5031 4.50692 27.5121 4.22335 25.497 4.22335C13.7681 4.22335 4.22335 13.7681 4.22335 25.497C4.22335 37.2258 13.7681 46.7706 25.497 46.7706C37.2258 46.7706 46.7706 37.2258 46.7706 25.497C46.7706 23.4939 46.4931 21.515 45.9501 19.6145L50.0105 18.45C50.6621 20.7306 50.994 23.1017 50.994 25.497C51 39.5607 39.5607 51 25.497 51Z" fill="#CDA77F"/>
<path d="M49.6366 10.3773H44.6108V15.2825H40.8882V10.3773H35.8926V6.85385H40.8882V1.94873H44.6108V6.85385H49.6366V10.3773Z" fill="#CDA77F"/>
</svg>
