<?xml version="1.0" encoding="utf-8"?><svg width="305" height="371" fill="none" xmlns="http://www.w3.org/2000/svg" stroke="currentColor" viewBox="0 0 305 371"><path d="M219.812.953C190.05 1.98 154.908 27.028 154.131 65.95c-.45 22.591 5.466 65.887 36.938 68.897l.684 1.711c-5.466 9.098-18.815 34.55-5.474 67.733 12.62 31.387 39.477 39.4 50.938 39.307a108.89 108.89 0 0 0 2.094-.106c-.644.063-1.344.1-2.094.106-6.527.273-22.748-.555-33.491-2.02-12.042-1.642-21.666-8.438-24.972-11.631-11.289-8.552-31.609-37.151-22.578-74.917.912-4.219 4.379-14.025 9.578-19.499l-.342-1.368c-4.789.456-16.762-2.326-26.34-17.104-11.973-18.473-12.658-43.445-11.631-54.392 1.026-10.947 5.131-46.866 51.654-61.575 1.027-.343 13.008-2.191 40.717-.139z" fill="url(#fpaint0_linear)"/><path d="M187.597 101.681c-.22.001-.431-.005-.634-.016l.634.016c6.434-.008 19.606-5.195 21.26-26.699.34-12.934-6.093-29.594-20.985-30.097l-.224-.006c.075.001.15.003.224.006 8.172.231 24.36.749 26.8 1.02 9.921 1.102 25.588 13.957 18.473 39.682-5.473 15.736-14.702 17.422-20.175 17.65l-25.373-1.556z" fill="url(#fpaint1_linear)"/><path d="M218.385 199.053c-.249 0-.489-.006-.719-.019l.719.019c7.308-.01 22.267-5.904 24.146-30.335.386-14.696-6.92-33.624-23.833-34.196l-.255-.007.255.007c9.281.263 25.709-3.884 28.481-3.576 11.267 1.252 31.018 20.593 22.936 49.82-6.216 17.879-16.706 18.786-22.922 19.045l-28.808-.758z" fill="url(#fpaint2_linear)"/><path fill-rule="evenodd" clip-rule="evenodd" d="M191.482 136.643l-.684-1.368c-32.02-3.558-38.428-47.55-37.63-69.101C155.563 27.86 191.14-4.98 227.743 1.86c6.173 1.154 25.999 5.816 38.656 39.34 10.126 26.82 1.026 49.489-4.789 57.47l.684 1.711c17.788-1.368 44.95 25.657 41.392 70.812-3.557 45.155-36.147 65.566-51.997 70.127-12.999 4.676-43.582 5.474-61.918-28.735-18.335-34.208-6.499-64.882 1.711-75.943zm43.104-62.602c0 15.394-8.553 28.394-21.552 28.394-11.902 0-21.551-12.712-21.551-28.394 0-15.68 10.604-28.05 21.551-28.05 11.631 0 21.552 12.657 21.552 28.05zm6.499 124.178c14.856 0 24.288-14.959 24.288-32.498 0-17.54-11.777-31.13-24.288-31.13-12.51 0-24.288 13.605-24.288 31.472s10.685 32.156 24.288 32.156z" fill="url(#fpaint3_linear)"/><path d="M62.707 189.71c22.167.765 48.342 19.421 48.92 48.41.336 16.827-4.071 49.074-27.512 51.316l-.51 1.274c4.072 6.776 14.014 25.734 4.078 50.448-9.4 23.378-29.403 29.346-37.94 29.277a73.433 73.433 0 0 1-1.559-.079c.48.047 1.001.075 1.56.079 4.861.203 16.942-.413 24.944-1.505 8.969-1.223 16.137-6.284 18.6-8.662 8.408-6.37 23.543-27.671 16.816-55.799-.679-3.143-3.261-10.447-7.134-14.524l.255-1.019c3.567.34 12.484-1.732 19.619-12.739 8.917-13.759 9.427-32.358 8.662-40.512-.764-8.153-3.821-34.906-38.473-45.862-.764-.255-9.688-1.632-30.326-.103z" fill="url(#fpaint4_linear)"/><path d="M86.701 264.734c.164 0 .321-.004.472-.013l-.472.013c-4.792-.007-14.602-3.87-15.834-19.886-.254-9.634 4.538-22.043 15.63-22.417l.166-.005a9.26 9.26 0 0 0-.167.005c-6.086.172-18.143.558-19.96.76-7.39.821-19.06 10.395-13.76 29.555 4.077 11.72 10.95 12.976 15.027 13.146l18.898-1.158z" fill="url(#fpaint5_linear)"/><path d="M63.77 337.257c.185 0 .364-.005.536-.014l-.536.014c-5.443-.007-16.585-4.397-17.984-22.594-.288-10.945 5.154-25.044 17.751-25.469l.19-.005-.19.005c-6.913.196-19.148-2.893-21.213-2.664-8.392.933-23.102 15.338-17.084 37.107 4.63 13.316 12.443 13.992 17.073 14.185l21.457-.565z" fill="url(#fpaint6_linear)"/><path fill-rule="evenodd" clip-rule="evenodd" d="M83.808 290.774l.51-1.019c23.848-2.65 28.62-35.416 28.026-51.468-1.784-28.537-28.282-52.996-55.544-47.901-4.598.86-19.364 4.332-28.792 29.301-7.541 19.976-.764 36.86 3.567 42.805l-.51 1.274C17.818 262.747-2.413 282.875.237 316.508c2.65 33.632 26.923 48.834 38.728 52.231 9.682 3.483 32.46 4.077 46.118-21.402 13.656-25.479 4.84-48.325-1.274-56.563zm-32.105-46.627c0 11.466 6.37 21.148 16.052 21.148 8.865 0 16.052-9.468 16.052-21.148 0-11.679-7.899-20.893-16.052-20.893-8.663 0-16.052 9.428-16.052 20.893zm-4.84 92.489c-11.066 0-18.09-11.141-18.09-24.205 0-13.064 8.771-23.186 18.09-23.186 9.317 0 18.09 10.133 18.09 23.441 0 13.307-7.96 23.95-18.09 23.95z" fill="url(#fpaint7_linear)"/><defs><linearGradient id="fpaint0_linear" x1="195.032" y1="254.841" x2="195.032" y2="-4.954" gradientUnits="userSpaceOnUse"><stop stop-color="#2E2E2E"/><stop offset="1" stop-color="#404040"/></linearGradient><linearGradient id="fpaint1_linear" x1="195.032" y1="254.841" x2="195.032" y2="-4.954" gradientUnits="userSpaceOnUse"><stop stop-color="#2E2E2E"/><stop offset="1" stop-color="#404040"/></linearGradient><linearGradient id="fpaint2_linear" x1="195.032" y1="254.841" x2="195.032" y2="-4.954" gradientUnits="userSpaceOnUse"><stop stop-color="#2E2E2E"/><stop offset="1" stop-color="#404040"/></linearGradient><linearGradient id="fpaint3_linear" x1="181.315" y1="3.932" x2="301.97" y2="222.598" gradientUnits="userSpaceOnUse"><stop stop-color="#2E2E2E"/><stop offset="1" stop-color="#404040"/></linearGradient><linearGradient id="fpaint4_linear" x1="81.163" y1="378.809" x2="81.163" y2="185.311" gradientUnits="userSpaceOnUse"><stop stop-color="#2E2E2E"/><stop offset="1" stop-color="#404040"/></linearGradient><linearGradient id="fpaint5_linear" x1="81.163" y1="378.809" x2="81.163" y2="185.311" gradientUnits="userSpaceOnUse"><stop stop-color="#2E2E2E"/><stop offset="1" stop-color="#404040"/></linearGradient><linearGradient id="fpaint6_linear" x1="81.163" y1="378.809" x2="81.163" y2="185.311" gradientUnits="userSpaceOnUse"><stop stop-color="#2E2E2E"/><stop offset="1" stop-color="#404040"/></linearGradient><linearGradient id="fpaint7_linear" x1="91.38" y1="191.929" x2="1.515" y2="354.794" gradientUnits="userSpaceOnUse"><stop stop-color="#2E2E2E"/><stop offset="1" stop-color="#404040"/></linearGradient></defs></svg>