<?xml version="1.0" encoding="utf-8"?><svg width="120" height="16" fill="none" xmlns="http://www.w3.org/2000/svg" stroke="currentColor" viewBox="0 0 120 16"><path d="M0 14.059l1.211-1.49c.714.483 1.468.86 2.26 1.133a7.74 7.74 0 0 0 2.456.399c1.081 0 1.932-.224 2.552-.671.627-.455.941-1.088.941-1.9 0-.51-.123-.926-.368-1.248a2.622 2.622 0 0 0-.93-.776 5.176 5.176 0 0 0-1.254-.452c-.455-.111-.898-.21-1.33-.293a15.297 15.297 0 0 1-1.84-.462 5.724 5.724 0 0 1-1.567-.787 3.942 3.942 0 0 1-1.093-1.227C.764 5.795.628 5.19.628 4.47c0-.644.118-1.242.356-1.795A3.933 3.933 0 0 1 2.022 1.27c.455-.392.999-.7 1.634-.924C4.29.116 5.006 0 5.808 0c.93 0 1.838.084 2.725.252a7.32 7.32 0 0 1 2.53.976L10.07 2.99a7.751 7.751 0 0 0-2.13-.84A9.656 9.656 0 0 0 5.785 1.9c-.418 0-.815.052-1.19.157a2.862 2.862 0 0 0-.973.483 2.387 2.387 0 0 0-.66.829c-.158.336-.238.72-.238 1.154 0 .434.116.787.346 1.06.231.265.523.486.877.66.36.175.75.315 1.168.42.418.105.81.196 1.178.273.67.147 1.323.315 1.958.504.634.189 1.2.45 1.698.787.497.328.898.755 1.2 1.28.303.524.455 1.2.455 2.024 0 .693-.137 1.316-.411 1.868a3.86 3.86 0 0 1-1.158 1.406c-.504.378-1.106.668-1.806.87-.7.204-1.474.305-2.325.305a10.39 10.39 0 0 1-3.104-.451C1.835 15.22.901 14.73 0 14.059zM13.13 2.214V.294h11.387v1.92h-4.596v13.629h-2.174V2.213H13.13zM26.529 10.932V.294h2.173v10.25c0 .63.101 1.172.303 1.627.202.447.473.814.811 1.101.34.28.736.49 1.19.63a5.172 5.172 0 0 0 2.844 0c.462-.14.866-.35 1.212-.63.346-.287.623-.654.832-1.101.21-.455.314-.997.314-1.627V.294h2.163v10.638c0 .798-.159 1.511-.476 2.14a4.877 4.877 0 0 1-1.287 1.606 5.7 5.7 0 0 1-1.882.986 7.585 7.585 0 0 1-2.282.336c-.8 0-1.564-.112-2.292-.336a5.684 5.684 0 0 1-1.893-.986 4.816 4.816 0 0 1-1.265-1.605c-.31-.637-.465-1.35-.465-2.14zM41.312 15.843V.293h6.014c.757 0 1.47.12 2.141.357.67.231 1.255.567 1.752 1.008.498.433.883.965 1.157 1.594.274.63.411 1.336.411 2.12v5.414a5.01 5.01 0 0 1-.422 2.066 4.647 4.647 0 0 1-1.168 1.606 5.408 5.408 0 0 1-1.752 1.028 6.3 6.3 0 0 1-2.141.357h-5.992zm2.131-1.847h3.374c.433 0 .876-.06 1.33-.178a3.39 3.39 0 0 0 1.233-.62c.36-.286.657-.65.887-1.09.231-.441.346-.99.346-1.648V5.73c0-.644-.108-1.19-.324-1.637a3.113 3.113 0 0 0-.865-1.102 3.271 3.271 0 0 0-1.222-.608 5.16 5.16 0 0 0-1.385-.19h-3.374v11.804zM56.323 15.843V.293h2.142v15.55h-2.142zM61.968 10.765V5.403c0-.783.145-1.5.433-2.15a4.712 4.712 0 0 1 1.211-1.658 5.466 5.466 0 0 1 1.871-1.07 7.367 7.367 0 0 1 2.401-.378c.858 0 1.651.126 2.38.378a5.586 5.586 0 0 1 1.881 1.07 4.652 4.652 0 0 1 1.223 1.657c.295.644.443 1.36.443 2.151v5.362c0 .797-.152 1.52-.454 2.171a4.853 4.853 0 0 1-1.255 1.648 5.943 5.943 0 0 1-1.882 1.049c-.72.245-1.5.367-2.336.367a7.56 7.56 0 0 1-2.4-.367 5.662 5.662 0 0 1-1.872-1.05 4.735 4.735 0 0 1-1.211-1.647c-.288-.65-.433-1.374-.433-2.171zm2.174-.242c0 .63.101 1.172.303 1.627.202.447.472.814.811 1.101.339.28.736.49 1.19.63.461.133.94.199 1.438.199.52 0 1.002-.066 1.45-.2.447-.14.843-.35 1.19-.629a3.01 3.01 0 0 0 .821-1.101c.202-.455.303-.997.303-1.627V5.645c0-.637-.101-1.179-.303-1.627a3.049 3.049 0 0 0-2.012-1.752 4.897 4.897 0 0 0-1.449-.21c-.512 0-.998.07-1.46.21a3.038 3.038 0 0 0-1.179.64 3.113 3.113 0 0 0-.8 1.112c-.202.448-.303.99-.303 1.627v4.878zM82.69 10.65V8.96h6.705v1.69h-6.706zM97.775 11.583c0-.392.062-.776.184-1.154.13-.378.3-.728.509-1.05.216-.328.465-.618.746-.87a3.29 3.29 0 0 1 .919-.588 2.751 2.751 0 0 1-1.492-1.29c-.34-.616-.509-1.305-.509-2.067 0-.72.134-1.357.4-1.91a4.078 4.078 0 0 1 1.082-1.374c.454-.37.959-.647 1.514-.829a5.399 5.399 0 0 1 1.731-.283c.584 0 1.157.09 1.719.273.57.175 1.078.45 1.525.829.454.37.815.832 1.082 1.384.274.553.411 1.196.411 1.93 0 .721-.163 1.386-.487 1.994a2.975 2.975 0 0 1-1.439 1.343 3.46 3.46 0 0 1 1.028.64c.288.252.523.535.703.85.18.315.31.65.389 1.007.087.357.13.7.13 1.029 0 .776-.148 1.45-.443 2.025a4.057 4.057 0 0 1-1.158 1.416 5.005 5.005 0 0 1-1.633.818 6.506 6.506 0 0 1-1.86.273c-.678 0-1.323-.09-1.936-.273a4.869 4.869 0 0 1-1.611-.808 4.05 4.05 0 0 1-1.093-1.364c-.274-.552-.41-1.203-.41-1.951zm2.153-.053c0 .833.256 1.473.767 1.92.52.448 1.248.672 2.185.672.901 0 1.612-.224 2.131-.671.526-.455.789-1.11.789-1.963 0-.384-.079-.737-.238-1.06a2.365 2.365 0 0 0-.627-.818 2.71 2.71 0 0 0-.93-.514 3.501 3.501 0 0 0-1.125-.178c-.404 0-.786.06-1.146.178-.354.12-.664.29-.93.514-.26.224-.473.5-.638.83a2.473 2.473 0 0 0-.238 1.09zm.205-6.966c0 .385.076.738.227 1.06.159.314.364.584.617.807.259.217.551.385.876.504.324.112.667.168 1.027.168a3.13 3.13 0 0 0 1.006-.168 2.65 2.65 0 0 0 .876-.514c.252-.23.454-.504.606-.818.158-.322.238-.675.238-1.06 0-.406-.076-.766-.228-1.08a2.196 2.196 0 0 0-.594-.788 2.483 2.483 0 0 0-.876-.482 3.393 3.393 0 0 0-2.044 0 2.577 2.577 0 0 0-.887.482c-.253.21-.458.473-.617.787a2.52 2.52 0 0 0-.227 1.102zM109.855 11.583c0-.392.062-.776.184-1.154.13-.378.3-.728.509-1.05.216-.328.465-.618.746-.87a3.28 3.28 0 0 1 .919-.588 2.75 2.75 0 0 1-1.492-1.29c-.339-.616-.509-1.305-.509-2.067 0-.72.134-1.357.4-1.91a4.082 4.082 0 0 1 1.082-1.374c.454-.37.959-.647 1.514-.829a5.404 5.404 0 0 1 1.731-.283c.584 0 1.157.09 1.719.273.57.175 1.078.45 1.525.829.454.37.815.832 1.082 1.384.274.553.411 1.196.411 1.93 0 .721-.163 1.386-.487 1.994a2.975 2.975 0 0 1-1.439 1.343 3.46 3.46 0 0 1 1.028.64c.288.252.523.535.703.85.18.315.31.65.389 1.007.087.357.13.7.13 1.029 0 .776-.148 1.45-.443 2.025a4.057 4.057 0 0 1-1.158 1.416 4.995 4.995 0 0 1-1.633.818 6.506 6.506 0 0 1-1.86.273c-.678 0-1.323-.09-1.936-.273a4.862 4.862 0 0 1-1.611-.808 4.054 4.054 0 0 1-1.093-1.364c-.274-.552-.411-1.203-.411-1.951zm2.153-.053c0 .833.256 1.473.768 1.92.519.448 1.247.672 2.184.672.901 0 1.612-.224 2.131-.671.526-.455.789-1.11.789-1.963 0-.384-.079-.737-.238-1.06a2.365 2.365 0 0 0-.627-.818 2.71 2.71 0 0 0-.93-.514 3.501 3.501 0 0 0-1.125-.178c-.404 0-.786.06-1.146.178-.354.12-.664.29-.93.514-.26.224-.473.5-.638.83a2.473 2.473 0 0 0-.238 1.09zm.205-6.966c0 .385.076.738.227 1.06.159.314.364.584.617.807.259.217.551.385.876.504.324.112.667.168 1.027.168a3.13 3.13 0 0 0 1.006-.168 2.65 2.65 0 0 0 .876-.514c.252-.23.454-.504.606-.818.158-.322.238-.675.238-1.06 0-.406-.076-.766-.228-1.08a2.196 2.196 0 0 0-.594-.788 2.483 2.483 0 0 0-.876-.482 3.393 3.393 0 0 0-2.044 0 2.577 2.577 0 0 0-.887.482c-.253.21-.458.473-.617.787a2.52 2.52 0 0 0-.227 1.102z" fill="#fff"/></svg>