<svg width="26" height="22" viewBox="0 0 26 22" fill="none" xmlns="http://www.w3.org/2000/svg">
<path d="M4.52799 0.576416C3.42293 0.576416 2.36312 1.01891 1.58172 1.80657C0.800315 2.59422 0.361328 3.66251 0.361328 4.77642V5.19852L12.8613 11.9836L25.3613 5.20062V4.77642C25.3613 3.66251 24.9223 2.59422 24.1409 1.80657C23.3595 1.01891 22.2997 0.576416 21.1947 0.576416H4.52799Z" fill="white"/>
<path d="M25.3613 7.58423L13.3551 14.1005C13.2033 14.1829 13.0337 14.226 12.8613 14.226C12.689 14.226 12.5193 14.1829 12.3676 14.1005L0.361328 7.58423V17.3765C0.361328 18.4904 0.800315 19.5587 1.58172 20.3464C2.36312 21.134 3.42293 21.5765 4.52799 21.5765H21.1947C22.2997 21.5765 23.3595 21.134 24.1409 20.3464C24.9223 19.5587 25.3613 18.4904 25.3613 17.3765V7.58423Z" fill="white"/>
</svg>
