<svg width="15" height="15" viewBox="0 0 15 15" fill="none" xmlns="http://www.w3.org/2000/svg">
<path d="M6.5787 0.287598C3.11578 0.287598 0.294922 3.10845 0.294922 6.57139C0.294922 10.0343 3.11578 12.8607 6.5787 12.8607C8.05782 12.8607 9.41815 12.3423 10.4933 11.4817L13.1107 14.0977C13.2428 14.2243 13.4192 14.2942 13.6022 14.2923C13.7852 14.2905 13.9601 14.217 14.0896 14.0877C14.2191 13.9584 14.2928 13.7836 14.2949 13.6007C14.297 13.4177 14.2274 13.2412 14.101 13.1089L11.4835 10.4915C12.3449 9.41468 12.8638 8.05221 12.8638 6.57139C12.8638 3.10845 10.0416 0.287598 6.5787 0.287598V0.287598ZM6.5787 1.68432C9.28678 1.68432 11.4658 3.8633 11.4658 6.57139C11.4658 9.27947 9.28678 11.4639 6.5787 11.4639C3.87062 11.4639 1.69162 9.27947 1.69162 6.57139C1.69162 3.8633 3.87062 1.68432 6.5787 1.68432Z" fill="white"/>
</svg>
