<svg width="305" height="371" viewBox="0 0 305 371" fill="none" xmlns="http://www.w3.org/2000/svg">
<path d="M219.812 0.953434C190.05 1.97969 154.908 27.0279 154.131 65.9497C153.681 88.5412 159.597 131.837 191.069 134.847L191.753 136.558C186.287 145.656 172.938 171.108 186.279 204.291C198.899 235.678 225.756 243.691 237.217 243.598C238.006 243.565 238.708 243.529 239.311 243.492C238.667 243.555 237.967 243.592 237.217 243.598C230.69 243.871 214.469 243.043 203.726 241.578C191.684 239.936 182.06 233.14 178.754 229.947C167.465 221.395 147.145 192.796 156.176 155.03C157.088 150.811 160.555 141.005 165.754 135.531L165.412 134.163C160.623 134.619 148.65 131.837 139.072 117.059C127.099 98.586 126.414 73.6138 127.441 62.667C128.467 51.7203 132.572 15.8013 179.095 1.09157C180.122 0.749484 192.103 -1.09908 219.812 0.953434Z" fill="url(#paint0_linear)"/>
<path d="M187.597 101.681C187.377 101.682 187.166 101.676 186.963 101.665L187.597 101.681C194.031 101.673 207.203 96.4855 208.857 74.9821C209.197 62.0477 202.764 45.3878 187.872 44.8849C187.797 44.8828 187.722 44.8806 187.648 44.8786C187.723 44.8803 187.798 44.8824 187.872 44.8849C196.044 45.1162 212.232 45.6336 214.672 45.9048C224.593 47.0071 240.26 59.8619 233.145 85.5868C227.672 101.323 218.443 103.009 212.97 103.237L187.597 101.681Z" fill="url(#paint1_linear)"/>
<path d="M218.385 199.053C218.136 199.053 217.896 199.047 217.666 199.034L218.385 199.053C225.693 199.043 240.652 193.149 242.531 168.718C242.917 154.022 235.611 135.094 218.698 134.522C218.612 134.52 218.527 134.517 218.443 134.515C218.528 134.517 218.613 134.519 218.698 134.522C227.979 134.785 244.407 130.638 247.179 130.946C258.446 132.198 278.197 151.539 270.115 180.766C263.899 198.645 253.409 199.552 247.193 199.811L218.385 199.053Z" fill="url(#paint2_linear)"/>
<path fill-rule="evenodd" clip-rule="evenodd" d="M191.482 136.643L190.798 135.275C158.778 131.717 152.37 87.725 153.168 66.1736C155.563 27.8599 191.14 -4.98029 227.743 1.86144C233.916 3.01526 253.742 7.6769 266.399 41.2013C276.525 68.0208 267.425 90.6897 261.61 98.6717L262.294 100.382C280.082 99.0138 307.244 126.039 303.686 171.194C300.129 216.349 267.539 236.76 251.689 241.321C238.69 245.997 208.107 246.795 189.771 212.586C171.436 178.378 183.272 147.704 191.482 136.643ZM234.586 74.0415C234.586 89.4354 226.033 102.435 213.034 102.435C201.132 102.435 191.483 89.7226 191.483 74.0415C191.483 58.3604 202.087 45.9905 213.034 45.9905C224.665 45.9905 234.586 58.6477 234.586 74.0415ZM241.085 198.219C255.941 198.219 265.373 183.26 265.373 165.721C265.373 148.181 253.596 134.591 241.085 134.591C228.575 134.591 216.797 148.196 216.797 166.063C216.797 183.93 227.482 198.219 241.085 198.219Z" fill="url(#paint3_linear)"/>
<path d="M62.7073 189.71C84.874 190.475 111.049 209.131 111.627 238.12C111.963 254.947 107.556 287.194 84.1151 289.436L83.6059 290.71C87.6767 297.486 97.6195 316.444 87.6826 341.158C78.283 364.536 58.28 370.504 49.7433 370.435C49.1559 370.411 48.6329 370.384 48.1842 370.356C48.6639 370.403 49.1851 370.431 49.7433 370.435C54.6052 370.638 66.6865 370.022 74.6883 368.93C83.6569 367.707 90.825 362.646 93.2879 360.268C101.696 353.898 116.831 332.597 110.104 304.469C109.425 301.326 106.843 294.022 102.97 289.945L103.225 288.926C106.792 289.266 115.709 287.194 122.844 276.187C131.761 262.428 132.271 243.829 131.506 235.675C130.742 227.522 127.685 200.769 93.0333 189.813C92.2689 189.558 83.3448 188.181 62.7073 189.71Z" fill="url(#paint4_linear)"/>
<path d="M86.7015 264.734C86.8647 264.734 87.0221 264.73 87.1731 264.721L86.7015 264.734C81.9088 264.727 72.0985 260.864 70.8665 244.848C70.613 235.214 75.4046 222.805 86.4962 222.431C86.5525 222.429 86.6083 222.428 86.6635 222.426C86.6076 222.427 86.5518 222.429 86.4962 222.431C80.4097 222.603 68.3528 222.989 66.5351 223.191C59.1462 224.012 47.4768 233.586 52.7764 252.746C56.8531 264.466 63.7264 265.722 67.8031 265.892L86.7015 264.734Z" fill="url(#paint5_linear)"/>
<path d="M63.7701 337.257C63.9554 337.257 64.1342 337.252 64.3057 337.243L63.7701 337.257C58.3269 337.25 47.1851 332.86 45.7859 314.663C45.4979 303.718 50.9398 289.619 63.537 289.194C63.6009 289.192 63.6642 289.19 63.7269 289.189C63.6634 289.19 63.6001 289.192 63.537 289.194C56.6243 289.39 44.3885 286.301 42.3241 286.53C33.9323 287.463 19.2215 301.868 25.2404 323.637C29.8704 336.953 37.6834 337.629 42.3134 337.822L63.7701 337.257Z" fill="url(#paint6_linear)"/>
<path fill-rule="evenodd" clip-rule="evenodd" d="M83.8075 290.774L84.3171 289.755C108.166 287.105 112.938 254.339 112.344 238.287C110.56 209.75 84.0621 185.291 56.7996 190.386C52.2019 191.246 37.4356 194.718 28.0083 219.687C20.4665 239.663 27.244 256.547 31.5754 262.492L31.0658 263.766C17.8167 262.747 -2.4136 282.875 0.236221 316.508C2.88603 350.14 27.159 365.342 38.9643 368.739C48.6464 372.222 71.4247 372.816 85.0815 347.337C98.7382 321.858 89.9225 299.012 83.8075 290.774ZM51.7033 244.147C51.7033 255.613 58.0731 265.295 67.7551 265.295C76.6202 265.295 83.8069 255.827 83.8069 244.147C83.8069 232.468 75.9084 223.254 67.7551 223.254C59.0922 223.254 51.7033 232.682 51.7033 244.147ZM46.8623 336.636C35.7971 336.636 28.7722 325.495 28.7722 312.431C28.7722 299.367 37.5443 289.245 46.8623 289.245C56.1803 289.245 64.9524 299.378 64.9524 312.686C64.9524 325.993 56.9939 336.636 46.8623 336.636Z" fill="url(#paint7_linear)"/>
<defs>
<linearGradient id="paint0_linear" x1="195.032" y1="254.841" x2="195.032" y2="-4.95356" gradientUnits="userSpaceOnUse">
<stop stop-color="#2E2E2E"/>
<stop offset="1" stop-color="#404040"/>
</linearGradient>
<linearGradient id="paint1_linear" x1="195.032" y1="254.841" x2="195.032" y2="-4.95356" gradientUnits="userSpaceOnUse">
<stop stop-color="#2E2E2E"/>
<stop offset="1" stop-color="#404040"/>
</linearGradient>
<linearGradient id="paint2_linear" x1="195.032" y1="254.841" x2="195.032" y2="-4.95356" gradientUnits="userSpaceOnUse">
<stop stop-color="#2E2E2E"/>
<stop offset="1" stop-color="#404040"/>
</linearGradient>
<linearGradient id="paint3_linear" x1="181.315" y1="3.93224" x2="301.97" y2="222.598" gradientUnits="userSpaceOnUse">
<stop stop-color="#2E2E2E"/>
<stop offset="1" stop-color="#404040"/>
</linearGradient>
<linearGradient id="paint4_linear" x1="81.1634" y1="378.809" x2="81.1634" y2="185.311" gradientUnits="userSpaceOnUse">
<stop stop-color="#2E2E2E"/>
<stop offset="1" stop-color="#404040"/>
</linearGradient>
<linearGradient id="paint5_linear" x1="81.1634" y1="378.809" x2="81.1634" y2="185.311" gradientUnits="userSpaceOnUse">
<stop stop-color="#2E2E2E"/>
<stop offset="1" stop-color="#404040"/>
</linearGradient>
<linearGradient id="paint6_linear" x1="81.1634" y1="378.809" x2="81.1634" y2="185.311" gradientUnits="userSpaceOnUse">
<stop stop-color="#2E2E2E"/>
<stop offset="1" stop-color="#404040"/>
</linearGradient>
<linearGradient id="paint7_linear" x1="91.38" y1="191.929" x2="1.51467" y2="354.794" gradientUnits="userSpaceOnUse">
<stop stop-color="#2E2E2E"/>
<stop offset="1" stop-color="#404040"/>
</linearGradient>
</defs>
</svg>
