<svg width="120" height="16" viewBox="0 0 120 16" fill="none" xmlns="http://www.w3.org/2000/svg">
<path d="M0 14.059L1.21129 12.5692C1.92509 13.0518 2.67854 13.4295 3.47165 13.7023C4.27196 13.9681 5.09031 14.101 5.92667 14.101C7.00818 14.101 7.85897 13.8772 8.47904 13.4295C9.10631 12.9749 9.41995 12.3419 9.41995 11.5305C9.41995 11.0199 9.29738 10.6037 9.05224 10.282C8.81431 9.96022 8.50427 9.70142 8.12214 9.50557C7.74722 9.30973 7.32903 9.15934 6.86759 9.05443C6.41335 8.94251 5.96993 8.84459 5.53733 8.76066C4.90284 8.64175 4.28999 8.48787 3.69876 8.29902C3.10754 8.10317 2.58481 7.84087 2.13057 7.51213C1.68355 7.18339 1.31944 6.77421 1.03825 6.28459C0.764267 5.79497 0.627276 5.18995 0.627276 4.46951C0.627276 3.82601 0.746242 3.22798 0.984174 2.67541C1.22932 2.12284 1.5754 1.65421 2.02242 1.26951C2.47666 0.877814 3.02102 0.570055 3.6555 0.346229C4.28999 0.11541 5.00739 0 5.80771 0C6.73781 0 7.64627 0.0839344 8.53311 0.251803C9.41995 0.412678 10.2635 0.737923 11.0638 1.22754L10.0689 2.99016C9.3839 2.59847 8.67371 2.31869 7.93828 2.15082C7.20286 1.98295 6.48545 1.89902 5.78608 1.89902C5.36789 1.89902 4.97134 1.95148 4.59642 2.05639C4.2287 2.16131 3.90425 2.32219 3.62306 2.53902C3.34908 2.75585 3.12917 3.03213 2.96334 3.36787C2.80472 3.70361 2.7254 4.08831 2.7254 4.52197C2.7254 4.95563 2.84077 5.30885 3.07149 5.58164C3.30221 5.84743 3.59422 6.06776 3.94751 6.24262C4.30801 6.41749 4.69736 6.55738 5.11554 6.66229C5.53373 6.76721 5.92667 6.85814 6.29439 6.93508C6.96492 7.08197 7.61743 7.24984 8.25192 7.43869C8.88641 7.62754 9.4524 7.88984 9.94989 8.22557C10.4474 8.55432 10.8475 8.98098 11.1504 9.50557C11.4532 10.0302 11.6046 10.7051 11.6046 11.5305C11.6046 12.223 11.4676 12.8455 11.1936 13.398C10.9269 13.9506 10.5411 14.4192 10.0364 14.8039C9.53171 15.1816 8.92967 15.4719 8.23029 15.6748C7.53091 15.8776 6.75583 15.979 5.90504 15.979C4.8019 15.979 3.76726 15.8286 2.80111 15.5279C1.83496 15.2201 0.901258 14.7305 0 14.059Z" fill="white"/>
<path d="M13.1291 2.21377V0.29377H24.5174V2.21377H19.921V15.8426H17.7471V2.21377H13.1291Z" fill="white"/>
<path d="M26.5286 10.9325V0.29377H28.7024V10.5443C28.7024 11.1738 28.8033 11.7158 29.0052 12.1705C29.2071 12.6181 29.4775 12.9854 29.8164 13.2721C30.1552 13.5519 30.5518 13.7617 31.006 13.9016C31.4675 14.0345 31.9469 14.101 32.4444 14.101C32.9203 14.101 33.3889 14.0345 33.8504 13.9016C34.3118 13.7617 34.7156 13.5519 35.0617 13.2721C35.4078 12.9854 35.6854 12.6181 35.8944 12.1705C36.1035 11.7158 36.2081 11.1738 36.2081 10.5443V0.29377H38.3711V10.9325C38.3711 11.7298 38.2125 12.4433 37.8952 13.0728C37.578 13.7023 37.149 14.2374 36.6082 14.678C36.0675 15.1117 35.4402 15.4404 34.7264 15.6643C34.0126 15.8881 33.252 16 32.4444 16C31.6441 16 30.8798 15.8881 30.1516 15.6643C29.4306 15.4404 28.7997 15.1117 28.259 14.678C27.7254 14.2374 27.3037 13.7023 26.9936 13.0728C26.6836 12.4363 26.5286 11.7228 26.5286 10.9325Z" fill="white"/>
<path d="M41.3124 15.8426V0.29377H47.3256C48.0826 0.29377 48.7964 0.412678 49.467 0.650492C50.1375 0.881311 50.7215 1.21705 51.219 1.6577C51.7165 2.09137 52.1022 2.62295 52.3762 3.25246C52.6502 3.88197 52.7872 4.58842 52.7872 5.3718V10.7856C52.7872 11.534 52.6466 12.223 52.3654 12.8525C52.0842 13.482 51.6949 14.017 51.1974 14.4577C50.6999 14.8984 50.1159 15.2411 49.4453 15.4859C48.782 15.7237 48.0682 15.8426 47.3039 15.8426H41.3124ZM43.443 13.9961H46.8173C47.2499 13.9961 47.6933 13.9366 48.1475 13.8177C48.609 13.6918 49.0199 13.4855 49.3804 13.1987C49.7409 12.9119 50.0366 12.5482 50.2673 12.1075C50.498 11.6669 50.6134 11.1178 50.6134 10.4603V5.72852C50.6134 5.08503 50.5052 4.53945 50.2889 4.0918C50.0726 3.64415 49.7842 3.27694 49.4237 2.99016C49.0632 2.70339 48.6558 2.50055 48.2016 2.38164C47.7474 2.25574 47.2859 2.19279 46.8173 2.19279H43.443V13.9961Z" fill="white"/>
<path d="M56.3233 15.8426V0.29377H58.4647V15.8426H56.3233Z" fill="white"/>
<path d="M61.9684 10.7646V5.40328C61.9684 4.61989 62.1126 3.90295 62.401 3.25246C62.6894 2.60197 63.0931 2.0494 63.6122 1.59475C64.1314 1.13311 64.755 0.776393 65.4833 0.52459C66.2187 0.272787 67.019 0.146885 67.8842 0.146885C68.7422 0.146885 69.5353 0.272787 70.2635 0.52459C70.9917 0.776393 71.619 1.13311 72.1454 1.59475C72.6717 2.0494 73.0791 2.60197 73.3675 3.25246C73.6631 3.89596 73.8109 4.6129 73.8109 5.40328V10.7646C73.8109 11.562 73.6595 12.2859 73.3567 12.9364C73.0538 13.5799 72.6356 14.129 72.1021 14.5836C71.5686 15.0313 70.9413 15.381 70.2203 15.6328C69.4993 15.8776 68.7206 16 67.8842 16C67.019 16 66.2187 15.8776 65.4833 15.6328C64.755 15.381 64.1314 15.0313 63.6122 14.5836C63.0931 14.129 62.6894 13.5799 62.401 12.9364C62.1126 12.2859 61.9684 11.562 61.9684 10.7646ZM64.1422 10.5233C64.1422 11.1528 64.2431 11.6949 64.445 12.1495C64.6469 12.5972 64.9173 12.9644 65.2561 13.2511C65.595 13.5309 65.9916 13.7408 66.4458 13.8807C66.9072 14.0136 67.3867 14.08 67.8842 14.08C68.4033 14.08 68.8864 14.0136 69.3334 13.8807C69.7805 13.7408 70.177 13.5309 70.5231 13.2511C70.8692 12.9644 71.1432 12.5972 71.345 12.1495C71.5469 11.6949 71.6479 11.1528 71.6479 10.5233V5.64459C71.6479 5.00809 71.5469 4.46601 71.345 4.01836C71.1432 3.56372 70.8728 3.19301 70.5339 2.90623C70.195 2.61246 69.7949 2.39913 69.3334 2.26623C68.8792 2.12634 68.3961 2.05639 67.8842 2.05639C67.3723 2.05639 66.8856 2.12634 66.4242 2.26623C65.9699 2.39913 65.577 2.61246 65.2453 2.90623C64.9137 3.19301 64.6469 3.56372 64.445 4.01836C64.2431 4.46601 64.1422 5.00809 64.1422 5.64459V10.5233Z" fill="white"/>
<path d="M82.6892 10.6492V8.96H89.3946V10.6492H82.6892Z" fill="white"/>
<path d="M97.7754 11.583C97.7754 11.1913 97.8367 10.8066 97.9593 10.4289C98.089 10.0511 98.2585 9.70142 98.4676 9.37967C98.6839 9.05093 98.9326 8.76066 99.2138 8.50885C99.495 8.25705 99.8014 8.0612 100.133 7.92131C99.477 7.6765 98.9795 7.24634 98.6406 6.63082C98.3017 6.0153 98.1323 5.32634 98.1323 4.56393C98.1323 3.8435 98.2657 3.20699 98.5325 2.65443C98.8064 2.10186 99.1669 1.64372 99.614 1.28C100.068 0.90929 100.573 0.633005 101.128 0.451148C101.69 0.262295 102.267 0.167869 102.859 0.167869C103.443 0.167869 104.016 0.258798 104.578 0.440656C105.148 0.615519 105.656 0.891803 106.103 1.26951C106.557 1.64022 106.918 2.10186 107.185 2.65443C107.459 3.20699 107.596 3.85049 107.596 4.58492C107.596 5.30536 107.433 5.96984 107.109 6.57836C106.784 7.18688 106.305 7.63454 105.67 7.92131C106.074 8.08918 106.417 8.30251 106.698 8.56131C106.986 8.81311 107.221 9.09639 107.401 9.41115C107.581 9.7259 107.711 10.0616 107.79 10.4184C107.877 10.7751 107.92 11.1178 107.92 11.4466C107.92 12.223 107.772 12.8979 107.477 13.4715C107.188 14.045 106.802 14.5172 106.319 14.8879C105.843 15.2516 105.299 15.5244 104.686 15.7062C104.073 15.8881 103.453 15.979 102.826 15.979C102.148 15.979 101.503 15.8881 100.89 15.7062C100.277 15.5244 99.7402 15.2551 99.2787 14.8984C98.8245 14.5346 98.4604 14.08 98.1864 13.5344C97.9124 12.9819 97.7754 12.3314 97.7754 11.583ZM99.9276 11.5305C99.9276 12.3628 100.184 13.0028 100.695 13.4505C101.215 13.8981 101.943 14.122 102.88 14.122C103.781 14.122 104.492 13.8981 105.011 13.4505C105.537 12.9958 105.8 12.3419 105.8 11.4885C105.8 11.1038 105.721 10.7506 105.562 10.4289C105.411 10.1071 105.202 9.83432 104.935 9.61049C104.675 9.38667 104.365 9.2153 104.005 9.09639C103.652 8.97749 103.277 8.91803 102.88 8.91803C102.476 8.91803 102.094 8.97749 101.734 9.09639C101.38 9.2153 101.07 9.38667 100.804 9.61049C100.544 9.83432 100.331 10.1106 100.166 10.4393C100.007 10.7681 99.9276 11.1318 99.9276 11.5305ZM100.133 4.56393C100.133 4.94863 100.209 5.30186 100.36 5.62361C100.519 5.93836 100.724 6.20765 100.977 6.43148C101.236 6.64831 101.528 6.81617 101.853 6.93508C102.177 7.04699 102.52 7.10295 102.88 7.10295C103.219 7.10295 103.554 7.04699 103.886 6.93508C104.218 6.81617 104.51 6.64481 104.762 6.42098C105.014 6.19016 105.216 5.91738 105.368 5.60262C105.526 5.28087 105.606 4.92765 105.606 4.54295C105.606 4.13727 105.53 3.77705 105.378 3.4623C105.234 3.14754 105.036 2.88525 104.784 2.67541C104.531 2.45858 104.239 2.2977 103.908 2.19279C103.576 2.08787 103.233 2.03541 102.88 2.03541C102.534 2.03541 102.195 2.08787 101.864 2.19279C101.532 2.2977 101.236 2.45858 100.977 2.67541C100.724 2.88525 100.519 3.14754 100.36 3.4623C100.209 3.77705 100.133 4.14426 100.133 4.56393Z" fill="white"/>
<path d="M109.855 11.583C109.855 11.1913 109.917 10.8066 110.039 10.4289C110.169 10.0511 110.339 9.70142 110.548 9.37967C110.764 9.05093 111.013 8.76066 111.294 8.50885C111.575 8.25705 111.881 8.0612 112.213 7.92131C111.557 7.6765 111.06 7.24634 110.721 6.63082C110.382 6.0153 110.212 5.32634 110.212 4.56393C110.212 3.8435 110.346 3.20699 110.612 2.65443C110.886 2.10186 111.247 1.64372 111.694 1.28C112.148 0.90929 112.653 0.633005 113.208 0.451148C113.771 0.262295 114.347 0.167869 114.939 0.167869C115.523 0.167869 116.096 0.258798 116.658 0.440656C117.228 0.615519 117.736 0.891803 118.183 1.26951C118.637 1.64022 118.998 2.10186 119.265 2.65443C119.539 3.20699 119.676 3.85049 119.676 4.58492C119.676 5.30536 119.513 5.96984 119.189 6.57836C118.864 7.18688 118.385 7.63454 117.75 7.92131C118.154 8.08918 118.497 8.30251 118.778 8.56131C119.066 8.81311 119.301 9.09639 119.481 9.41115C119.661 9.7259 119.791 10.0616 119.87 10.4184C119.957 10.7751 120 11.1178 120 11.4466C120 12.223 119.852 12.8979 119.557 13.4715C119.268 14.045 118.882 14.5172 118.399 14.8879C117.924 15.2516 117.379 15.5244 116.766 15.7062C116.153 15.8881 115.533 15.979 114.906 15.979C114.228 15.979 113.583 15.8881 112.97 15.7062C112.357 15.5244 111.82 15.2551 111.359 14.8984C110.905 14.5346 110.54 14.08 110.266 13.5344C109.992 12.9819 109.855 12.3314 109.855 11.583ZM112.008 11.5305C112.008 12.3628 112.264 13.0028 112.776 13.4505C113.295 13.8981 114.023 14.122 114.96 14.122C115.861 14.122 116.572 13.8981 117.091 13.4505C117.617 12.9958 117.88 12.3419 117.88 11.4885C117.88 11.1038 117.801 10.7506 117.642 10.4289C117.491 10.1071 117.282 9.83432 117.015 9.61049C116.755 9.38667 116.445 9.2153 116.085 9.09639C115.732 8.97749 115.357 8.91803 114.96 8.91803C114.556 8.91803 114.174 8.97749 113.814 9.09639C113.46 9.2153 113.15 9.38667 112.884 9.61049C112.624 9.83432 112.411 10.1106 112.246 10.4393C112.087 10.7681 112.008 11.1318 112.008 11.5305ZM112.213 4.56393C112.213 4.94863 112.289 5.30186 112.44 5.62361C112.599 5.93836 112.804 6.20765 113.057 6.43148C113.316 6.64831 113.608 6.81617 113.933 6.93508C114.257 7.04699 114.6 7.10295 114.96 7.10295C115.299 7.10295 115.634 7.04699 115.966 6.93508C116.298 6.81617 116.59 6.64481 116.842 6.42098C117.094 6.19016 117.296 5.91738 117.448 5.60262C117.606 5.28087 117.686 4.92765 117.686 4.54295C117.686 4.13727 117.61 3.77705 117.458 3.4623C117.314 3.14754 117.116 2.88525 116.864 2.67541C116.611 2.45858 116.319 2.2977 115.988 2.19279C115.656 2.08787 115.313 2.03541 114.96 2.03541C114.614 2.03541 114.275 2.08787 113.944 2.19279C113.612 2.2977 113.316 2.45858 113.057 2.67541C112.804 2.88525 112.599 3.14754 112.44 3.4623C112.289 3.77705 112.213 4.14426 112.213 4.56393Z" fill="white"/>
</svg>
