<svg width="23" height="23" viewBox="0 0 23 23" fill="none" xmlns="http://www.w3.org/2000/svg">
<path d="M22.6448 2.70023C22.3639 2.37149 21.9431 2.19049 21.4598 2.19049C21.1971 2.19049 20.9188 2.24338 20.6328 2.34798L1.16379 9.45903C0.13059 9.8363 -0.0085622 10.4025 0.000387049 10.7064C0.0093363 11.0103 0.181829 11.568 1.23574 11.8889C1.24205 11.8907 1.24837 11.8926 1.25469 11.8942L5.29308 13L7.47705 18.9756C7.77484 19.7902 8.44322 20.2963 9.22163 20.2963C9.71244 20.2963 10.1952 20.0995 10.6177 19.7274L13.1156 17.5268L16.7387 20.3181C16.739 20.3184 16.7395 20.3186 16.7399 20.3189L16.7743 20.3455C16.7774 20.3478 16.7808 20.3503 16.7839 20.3527C17.1866 20.6515 17.6262 20.8094 18.0556 20.8095H18.0558C18.8947 20.8095 19.5628 20.2153 19.7574 19.2959L22.9473 4.22459C23.0754 3.61965 22.968 3.07834 22.6448 2.70023ZM6.64407 12.79L14.4354 8.98152L9.58399 13.9139C9.5045 13.9947 9.44817 14.0936 9.42045 14.2012L8.48499 17.8268L6.64407 12.79ZM9.70472 18.7788C9.67243 18.8072 9.63997 18.8325 9.6075 18.8559L10.4754 15.4925L12.0542 16.7089L9.70472 18.7788ZM21.6265 3.96855L18.4366 19.04C18.4059 19.1843 18.3078 19.5199 18.0556 19.5199C17.931 19.5199 17.7745 19.4549 17.6143 19.3369L13.5089 16.174C13.5083 16.1735 13.5076 16.173 13.5069 16.1727L11.0641 14.2905L18.0798 7.15763C18.3044 6.92929 18.3248 6.57955 18.1281 6.32871C17.9312 6.07787 17.5744 5.99896 17.2826 6.14167L5.74371 11.7821L1.65038 10.6615L21.1134 3.55266C21.2779 3.49255 21.3926 3.47996 21.4598 3.47996C21.5011 3.47996 21.5744 3.48466 21.6016 3.51673C21.6374 3.55854 21.683 3.70108 21.6265 3.96855Z" fill="white"/>
</svg>
