<svg width="21" height="21" viewBox="0 0 21 21" fill="none" xmlns="http://www.w3.org/2000/svg">
<path d="M10.5 0C4.69693 0 0 4.69613 0 10.5C0 12.2105 0.419128 13.9001 1.21413 15.4039L0.81102 19.2884C0.757347 19.8061 1.1941 20.2428 1.7116 20.189L5.59607 19.7859C7.09987 20.5809 8.78952 21 10.5 21C16.3031 21 21 16.3039 21 10.5C21 4.69693 16.3039 0 10.5 0ZM10.5 19.3594C8.98146 19.3594 7.48311 18.9683 6.1666 18.2284C6.02048 18.1464 5.85081 18.11 5.68002 18.1276L2.54713 18.4529L2.87238 15.32C2.88984 15.1511 2.85459 14.9813 2.77144 14.8332C2.03172 13.5169 1.64062 12.0185 1.64062 10.5C1.64062 5.6036 5.60296 1.64062 10.5 1.64062C15.3964 1.64062 19.3594 5.60296 19.3594 10.5C19.3594 15.3964 15.397 19.3594 10.5 19.3594ZM12.9199 10.4864C11.4857 10.4864 10.354 11.7281 10.4987 13.1654C9.33506 12.6091 8.3909 11.6649 7.83463 10.5013C9.27354 10.646 10.5136 9.51274 10.5136 8.08008C10.5136 6.7381 9.4219 5.64654 8.08008 5.64654C6.73826 5.64654 5.64654 6.7381 5.64654 8.08008C5.64654 12.0906 8.90936 15.3535 12.9199 15.3535C14.2619 15.3535 15.3535 14.2617 15.3535 12.9199C15.3535 11.5781 14.2619 10.4864 12.9199 10.4864ZM8.08008 7.28716C8.51731 7.28716 8.87299 7.64285 8.87299 8.08008C8.87299 8.51731 8.51731 8.87299 8.08008 8.87299C7.64285 8.87299 7.28716 8.51731 7.28716 8.08008C7.28716 7.64285 7.64285 7.28716 8.08008 7.28716ZM12.127 12.9199C12.127 12.4827 12.4827 12.127 12.9199 12.127C13.3572 12.127 13.7128 12.4827 13.7128 12.9199C13.7128 13.3572 13.3572 13.7128 12.9199 13.7128C12.4827 13.7128 12.127 13.3572 12.127 12.9199Z" fill="white"/>
</svg>
