<svg width="15" height="15" viewBox="0 0 15 15" fill="none" xmlns="http://www.w3.org/2000/svg">
<path d="M0.75 5.30357V11.5C0.75 12.6046 1.64543 13.5 2.75 13.5H11.5C12.6046 13.5 13.5 12.6046 13.5 11.5V5.30357M0.75 5.30357V3.66071C0.75 2.55614 1.64543 1.66071 2.75 1.66071H3.9375H5.30357M0.75 5.30357H13.5M13.5 5.30357V3.66071C13.5 2.55614 12.6046 1.66071 11.5 1.66071H10.3125H8.94643M5.30357 1.66071H7.125H8.94643M5.30357 1.66071V0.75M5.30357 1.66071V2.57143M8.94643 1.66071V0.75M8.94643 1.66071V2.57143" stroke="#D9D9D9" stroke-width="2" stroke-linecap="round" stroke-linejoin="round"/>
</svg>
