<svg width="41" height="44" viewBox="0 0 41 44" fill="none" xmlns="http://www.w3.org/2000/svg">
<path d="M15.7119 38.1412L16.0978 36.6917C15.8113 36.6154 15.5087 36.6257 15.2281 36.7214L15.7119 38.1412ZM5.84623 31.6052L7.33167 31.8137C7.38796 31.4127 7.27973 31.006 7.03158 30.686L5.84623 31.6052ZM4.3871 42L2.90166 41.7915C2.82924 42.3074 3.02971 42.824 3.43122 43.156C3.83272 43.488 4.37774 43.5879 4.87089 43.4198L4.3871 42ZM13.3387 14.2376C12.5103 14.2376 11.8387 14.9091 11.8387 15.7376C11.8387 16.566 12.5103 17.2376 13.3387 17.2376V14.2376ZM20.5 17.2376C21.3284 17.2376 22 16.566 22 15.7376C22 14.9091 21.3284 14.2376 20.5 14.2376V17.2376ZM13.3387 21.405C12.5103 21.405 11.8387 22.0766 11.8387 22.905C11.8387 23.7334 12.5103 24.405 13.3387 24.405V21.405ZM27.6613 24.405C28.4897 24.405 29.1613 23.7334 29.1613 22.905C29.1613 22.0766 28.4897 21.405 27.6613 21.405V24.405ZM15.3259 39.5907C19.9035 40.8096 24.7681 40.3729 29.0525 38.3579L27.7757 35.6432C24.1317 37.357 19.9927 37.7288 16.0978 36.6917L15.3259 39.5907ZM29.0525 38.3579C33.337 36.3429 36.7641 32.8797 38.7201 28.5839L35.9898 27.3407C34.3298 30.9862 31.4195 33.9295 27.7757 35.6432L29.0525 38.3579ZM38.7201 28.5839C40.6761 24.288 41.0329 19.4404 39.7263 14.9068L36.8436 15.7376C37.952 19.5834 37.6496 23.6954 35.9898 27.3407L38.7201 28.5839ZM39.7263 14.9068C38.4197 10.3733 35.5354 6.45071 31.5906 3.83727L29.9337 6.33822C33.2871 8.55985 35.7352 11.8916 36.8436 15.7376L39.7263 14.9068ZM31.5906 3.83727C27.646 1.22397 22.8967 0.0889341 18.1897 0.633141L18.5343 3.61329C22.5399 3.15017 26.5801 4.11644 29.9337 6.33822L31.5906 3.83727ZM18.1897 0.633141C13.4827 1.17735 9.12143 3.36579 5.88482 6.81044L8.07114 8.86471C10.8207 5.9384 14.5287 4.0764 18.5343 3.61329L18.1897 0.633141ZM5.88482 6.81044C2.64801 10.2553 0.746717 14.7324 0.522387 19.4436L3.51899 19.5863C3.70925 15.5908 5.32176 11.7908 8.07114 8.86471L5.88482 6.81044ZM0.522387 19.4436C0.298055 24.1547 1.76545 28.7907 4.66088 32.5244L7.03158 30.686C4.57296 27.5156 3.32874 23.5817 3.51899 19.5863L0.522387 19.4436ZM4.36079 31.3967L2.90166 41.7915L5.87253 42.2085L7.33167 31.8137L4.36079 31.3967ZM4.87089 43.4198L16.1956 39.561L15.2281 36.7214L3.9033 40.5802L4.87089 43.4198ZM13.3387 17.2376H20.5V14.2376H13.3387V17.2376ZM13.3387 24.405H27.6613V21.405H13.3387V24.405Z" fill="white"/>
</svg>
